<svg version="1.1" xmlns="http://www.w3.org/2000/svg" viewBox="0 0 587.0000610351562 487.9999542236328">
  <!-- svg-source:excalidraw -->
  <defs>
    <style>
      @font-face {
        font-family: "Virgil";
        src: url("https://excalidraw.com/FG_Virgil.woff2");
      }
      @font-face {
        font-family: "Cascadia";
        src: url("https://excalidraw.com/Cascadia.woff2");
      }
    </style>
  </defs>
  <g transform="translate(373.79998779296875 196.5999755859375) rotate(0 57.200042724609375 50.79997253417969)"><path d="M1.9443123433738947 1.9011270012706518 C25.173041102171783 -0.033986086806040205, 47.293869241462836 2.254822080174703, 113.0098574850708 0.30594261549413204 M0.4599898857995868 0.17177743185311556 C35.08071648163608 -0.5886241220664161, 70.60694062843693 -1.3250773274134773, 115.24974376987663 -0.1432035220786929 M113.10083563067016 -0.08799115754663944 C114.2579940137295 25.51469777381815, 115.34708597034495 49.68802536179915, 112.45569694973526 100.02268650196491 M114.72958810161796 -0.5774660361930728 C113.9015414757887 31.781227538563208, 115.56979504658376 63.300173684425445, 113.42541937064377 101.49366617668419 M114.78945768810806 100.9872884955257 C80.68970196939492 101.31761083697037, 48.92650363898744 102.57300607060151, -1.9603467490524054 101.70202155970036 M113.83917025756088 101.66272855270653 C84.50936223951169 101.91388664316325, 53.701689956020616 101.81166309785037, -0.10655902791768312 101.88910845387726 M0.6410989258438349 100.08619447611271 C2.4369963556129757 69.72779468550681, 1.872306421359283 35.00924741870462, -0.063041677698493 0.9151758160442114 M0.3888034923002124 101.53332189191131 C-0.7919229523633728 68.85726156139782, -0.7897899107431183 37.04610468089655, -0.20864870119839907 0.31854445207864046" stroke="#343a40" stroke-width="1" fill="none"></path></g><g transform="translate(387.4000244140625 231.99996948242188) rotate(0 44 13)"><text x="0" y="22" font-family="Virgil, Segoe UI Emoji" font-size="20px" fill="#343a40" text-anchor="start" style="white-space: pre;" direction="ltr">Controller</text></g><g transform="translate(350.1999816894531 10) rotate(0 57.200042724609375 50.79997253417969)"><path d="M-1.783681908622384 -0.10941111110150814 C39.2236559121295 0.2747172087454748, 82.2736782879351 0.10458332002400872, 114.92602147720751 -0.5419929530471563 M0.4051154004409909 -0.6745053129270673 C43.61476655754636 0.9834699445606877, 84.84337389903894 1.1421915405632665, 113.57216626871374 -0.4867621557787061 M113.19204558990893 -1.292048742994666 C114.46551813856493 24.131212653121356, 114.8372654534949 50.18625848832429, 115.52536614798007 100.02455497719346 M114.07074219454077 0.27175344061106443 C113.76251814295853 22.595389292520462, 114.3237677269181 44.74618407234734, 114.12152585852888 101.24994287919252 M115.01662524603304 102.59247709251939 C89.52630844922781 103.16212689692509, 67.95257757466379 101.03828435952198, 0.3235995974391699 102.07611305452882 M114.90335831511763 101.08445487450807 C74.53310629102481 101.34903329157035, 33.79661758022546 101.62148054980437, -0.02220212947577238 101.88095314335077 M-0.4769961629062891 100.51816541887818 C1.0353597753416872 66.88078692683658, -1.28890349932796 28.3938696316944, 0.6784488763660192 1.4057110641151667 M0.8287755297496915 101.4235416157171 C1.0363924763770527 75.44209923479667, 0.7233267984958118 49.64859459038747, 0.14528528321534395 -0.9340939121320844" stroke="#343a40" stroke-width="1" fill="none"></path></g><g transform="translate(376.2000732421875 48.80000305175781) rotate(0 28.5 13)"><text x="0" y="22" font-family="Virgil, Segoe UI Emoji" font-size="20px" fill="#343a40" text-anchor="start" style="white-space: pre;" direction="ltr">Model</text></g><g><g transform="translate(382.60003662109375 194.99996948242188) rotate(0 -1.5954876993391736 -39.83385218723677)"><path d="M-0.23299901448190208 -0.695428055897355 C-0.7263070857773224 -14.074712719892464, -1.4594934300829967 -67.73423935013513, -1.8077228423207998 -81.22157264389098 M-1.8144622264243664 1.553868269417435 C-2.5847751196163395 -11.575174163089443, -3.1993303281006713 -66.19114356130983, -2.8648035720922054 -79.90547943940386" stroke="#343a40" stroke-width="1" fill="none"></path></g><g transform="translate(382.60003662109375 194.99996948242188) rotate(0 -1.5954876993391736 -39.83385218723677)"><path d="M6.148460189827443 -52.02886461842141 C2.7989816894258706 -64.08287791956477, -1.8924516926066808 -75.37126947777675, -0.9743688804097475 -78.73247723547742 M7.453349780306876 -51.70344258568517 C2.757033858381864 -63.842419178293326, -1.5281832289344095 -74.38498192789055, -2.0904255005531014 -79.90158817531541" stroke="#343a40" stroke-width="1" fill="none"></path></g><g transform="translate(382.60003662109375 194.99996948242188) rotate(0 -1.5954876993391736 -39.83385218723677)"><path d="M-14.372647872832193 -52.09310064013093 C-9.5960591392253 -64.08183082146253, -6.160918965725811 -75.34478424281839, -0.9743688804097475 -78.73247723547742 M-13.06775828235276 -51.767678607394686 C-9.5659954754127 -63.82219250111998, -5.653660163279927 -74.33909493294645, -2.0904255005531014 -79.90158817531541" stroke="#343a40" stroke-width="1" fill="none"></path></g></g><g><g transform="translate(413.800048828125 113.39996337890625) rotate(0 0.11236237250267322 40.808140397258114)"><path d="M-0.9500452224165201 -0.43293126784265035 C-0.682417756691575 13.012467758233347, 1.1674860533326865 68.11928550836942, 1.1747699674218894 81.72110352553428 M0.7520423064753414 -1.7058241287991405 C1.0021529028937222 12.472776600110034, 0.71679736237973 69.32548451819768, 0.8434787366911771 83.32210492331535" stroke="#343a40" stroke-width="1" fill="none"></path></g><g transform="translate(413.800048828125 113.39996337890625) rotate(0 0.11236237250267322 40.808140397258114)"><path d="M-10.175226017292951 57.1026055967771 C-6.286284409872418 61.15681596917281, -4.472184728271319 69.15057000162632, 0.14390303496271395 82.10340678866953 M-8.812698066626107 55.68931223604461 C-7.034070176075135 63.59160578235624, -2.879774783086143 72.3843404565521, -0.08750155359506584 83.97251251608134" stroke="#343a40" stroke-width="1" fill="none"></path></g><g transform="translate(413.800048828125 113.39996337890625) rotate(0 0.11236237250267322 40.808140397258114)"><path d="M10.34596532786851 57.07599430012115 C8.815826037054972 60.97476511894922, 5.210612257787609 68.97554676279981, 0.14390303496271395 82.10340678866953 M11.708493278535355 55.66270093938866 C7.102719628990182 63.43531499362105, 4.87252095715535 72.23632889794051, -0.08750155359506584 83.97251251608134" stroke="#343a40" stroke-width="1" fill="none"></path></g></g><g transform="translate(433.00006103515625 123.99996948242188) rotate(0 72 26.5)"><text x="0" y="21.5" font-family="Virgil, Segoe UI Emoji" font-size="20px" fill="#343a40" text-anchor="start" style="white-space: pre;" direction="ltr">Requests &amp; gets</text><text x="0" y="48" font-family="Virgil, Segoe UI Emoji" font-size="20px" fill="#343a40" text-anchor="start" style="white-space: pre;" direction="ltr">information</text></g><g><g transform="translate(418.60003662109375 298.1999816894531) rotate(0 0.21347541484050225 38.60168384751307)"><path d="M0.2362489823251963 -0.8253741804510355 C0.32338470661391444 11.887103860468299, 1.621073504971942 63.75881300166562, 1.5258098609745274 76.67138450266796 M-1.0988590312935411 1.3557004294730723 C-1.1907498516949553 14.207839733023821, 0.46476067048185155 65.29197933050185, 0.9783055075816582 78.02874187547715" stroke="#343a40" stroke-width="1" fill="none"></path></g><g transform="translate(418.60003662109375 298.1999816894531) rotate(0 0.21347541484050225 38.60168384751307)"><path d="M-11.639524519404763 51.486405230258356 C-6.431320627859545 59.03130410113177, -2.15455128903843 69.69216798649148, 2.7008064371905993 76.87111502867194 M-10.697353064043813 51.04472695862944 C-7.655334603373474 57.90993231478948, -4.296479120823638 67.18421294689388, 0.1204567841626476 78.81301371641459" stroke="#343a40" stroke-width="1" fill="none"></path></g><g transform="translate(418.60003662109375 298.1999816894531) rotate(0 0.21347541484050225 38.60168384751307)"><path d="M8.869079687171965 50.7672697188123 C6.212908720832846 58.62839285812812, 2.622926960758096 69.56510487132432, 2.7008064371905993 76.87111502867194 M9.811251142532914 50.325591447183385 C6.499974173492188 57.50023463217586, 3.5068249155733016 66.99724871467664, 0.1204567841626476 78.81301371641459" stroke="#343a40" stroke-width="1" fill="none"></path></g></g><g transform="translate(365.3999938964844 376.40000915527344) rotate(0 57.200042724609375 50.79997253417969)"><path d="M-0.9351476933807135 -0.5143071804195642 C42.05788811170755 1.6382825402728252, 78.57125816057022 -0.31923764662826737, 113.15481341816482 1.4737889971584082 M0.2792436582967639 -0.6293703569099307 C41.240392743631524 0.7286344563736891, 84.11274616704002 -0.011622955821516623, 114.39350525569168 0.36747825611382723 M113.21104730106887 -0.06044934131205082 C112.82374005275074 36.08923868276213, 114.57569478707615 72.69207268767127, 113.76348132826385 100.08242245577274 M114.71506253909317 0.2591053294017911 C113.63950100078374 28.929041300062973, 115.04933648838788 57.88096446097074, 114.29677237104622 102.57434860337524 M114.08935327269134 102.24705191515385 C87.06070295748498 100.09666019911816, 59.157001143865514 102.75331008667996, -0.4283935930579901 102.61281456612049 M113.49583972524849 100.75460330117492 C79.30904393409195 102.16419341300536, 42.913762539602885 101.44824134443809, -0.01142921019345522 101.90053982008247 M0.23889375664293766 101.24047197960316 C0.8803347762449745 70.59138971632365, -0.06555976311125722 40.74201105106661, 0.4751237127929926 -1.3032597694545984 M-0.6855842070654035 101.76468581426887 C0.04116297882741682 80.06001818447986, 0.32741944116300337 57.85956674884368, 0.7929666740819812 -0.7056753886863589" stroke="#343a40" stroke-width="1" fill="none"></path></g><g transform="translate(443.39996337890625 317.5999755859375) rotate(0 48.5 13)"><text x="0" y="22" font-family="Virgil, Segoe UI Emoji" font-size="20px" fill="#343a40" text-anchor="start" style="white-space: pre;" direction="ltr">Sends data</text></g><g><g transform="translate(361 433.3999938964844) rotate(0 -136.5744773130491 -90.19354366143236)"><path d="M-0.45257247649133203 1.0739872869104146 C-46.14336315299694 -28.84277357443546, -228.28951038994512 -149.35610933673257, -273.73276879411185 -179.44255212862043 M1.510688244011253 0.592226667199284 C-44.37064299238224 -29.717900542293986, -228.8193930431703 -151.69166317100326, -274.65964287010945 -181.4610746097751" stroke="#343a40" stroke-width="1" fill="none"></path></g><g transform="translate(361 433.3999938964844) rotate(0 -136.5744773130491 -90.19354366143236)"><path d="M-243.67129810037198 -174.50507402191582 C-254.89620941644483 -175.88392187557287, -264.66166514281485 -180.53025345352026, -274.6364152883551 -180.24247574666515 M-246.45860750762853 -174.7174717025337 C-253.04942772425602 -176.1191675196928, -259.9029159485603 -178.23866480263626, -274.0182558442838 -181.0679509784095" stroke="#343a40" stroke-width="1" fill="none"></path></g><g transform="translate(361 433.3999938964844) rotate(0 -136.5744773130491 -90.19354366143236)"><path d="M-254.93044681883856 -157.34839682260676 C-262.39936687962506 -164.42079521543093, -268.40053709244813 -174.8031405060346, -274.6364152883551 -180.24247574666515 M-257.7177562260951 -157.56079450322463 C-261.48013217028307 -163.22759672393457, -265.5268715827446 -169.62401445161382, -274.0182558442838 -181.0679509784095" stroke="#343a40" stroke-width="1" fill="none"></path></g></g><g transform="translate(240.20001220703125 328) rotate(0 42.5 13)"><text x="0" y="22" font-family="Virgil, Segoe UI Emoji" font-size="20px" fill="#343a40" text-anchor="start" style="white-space: pre;" direction="ltr">Response</text></g><g transform="translate(397.79998779296875 419.2000427246094) rotate(0 21 13)"><text x="0" y="22" font-family="Virgil, Segoe UI Emoji" font-size="20px" fill="#343a40" text-anchor="start" style="white-space: pre;" direction="ltr">View</text></g><g transform="translate(15.60003662109375 228.19996643066406) rotate(0 26 32.4000244140625)"><path d="M-1.1388190891593695 0.06374718807637691 C14.183380034565927 2.278952908180654, 28.005466624721887 0.11330474581569433, 51.91729230619967 -0.38308743573725224 M0.8729936284944415 0.27544105518609285 C15.379787658341229 0.09836180195212363, 30.965724258683622 -0.579045611768961, 52.70323098730296 -0.33701189886778593 M50.06872577406466 -0.5381601247936487 C51.092630824868685 19.73021274431046, 53.748911044423586 41.11182680909328, 53.05093313194811 66.39326109550893 M51.81861914228648 0.5646173106506467 C53.1291654314649 25.50883089483471, 52.176636150087106 51.72383171809348, 52.90796122979373 64.99657220114022 M53.32112575508654 64.8613726105541 C34.58565978184342 66.70970244009048, 16.036726782843466 64.70180345375091, -0.10595910809934139 66.04794176481664 M52.41770515870303 63.845764582045376 C33.44129518065601 64.86217468015849, 14.852072206698352 64.21755649678408, -0.9045328395441175 64.09535119403154 M0.9641450140625238 65.04402264021337 C1.0535452128584415 47.76519598197085, -0.685899817830798 30.551636886594544, -0.08847962878644466 0.999838849529624 M-0.43085305858403444 65.0920579181984 C-1.0741565039666217 47.33971665116476, -1.0347252598317187 31.808907252112064, -0.7855512695387006 0.654668097384274" stroke="#343a40" stroke-width="1" fill="none"></path></g><g transform="translate(10 172.9999237060547) rotate(0 29.600006103515625 27.600006103515625)"><path d="M37.75820948240101 1.0729853307374846 C43.46187298393699 2.153947358351644, 50.58392058941769 7.298444833448475, 54.044819357508686 12.294195586620765 C57.505718125599685 17.289946339793055, 59.04616896976816 25.122930939897266, 58.523602090946994 31.047489849771225 C58.00103521212583 36.97204875964518, 55.44561415067076 43.774358822624514, 50.909418084581674 47.84154904586451 C46.37322201849259 51.90873926910451, 37.80838846528317 55.180427424527366, 31.30642569441248 55.45063118921122 C24.804462923541784 55.72083495389508, 16.858563282802535 53.074116958275695, 11.897641459357512 49.46277163396766 C6.93671963591249 45.85142630965963, 2.9953293000101677 39.307652566634395, 1.540894753742343 33.78255924336302 C0.08646020747451821 28.257465920091644, 0.42803330815749874 21.71680851335764, 3.1710341817505636 16.31221169433941 C5.9140350553436285 10.90761487532118, 11.729932810205295 3.842613084930043, 17.998899995300732 1.3549783292536333 C24.26786718039617 -1.1326564264227765, 36.522212870178 0.8535281841113935, 40.78483729232318 1.3864031602809526 C45.04746171446836 1.9192781364505116, 43.64123545955975 3.9132032493217648, 43.574646528171805 4.5522281862709875 M42.520189298783635 1.8884438204861809 C48.11767474114687 3.7152813797636925, 54.1834458319539 10.72798593768281, 56.77863940678835 15.956438569052095 C59.373832981622805 21.18489120042138, 59.586892824622176 27.42651306875901, 58.09135074779036 33.259159608701886 C56.59580867095854 39.09180614864476, 52.74761906101662 47.206149110703805, 47.80538694579745 50.95231780870934 C42.86315483057828 54.69848650671487, 34.73231116080813 56.25929845159514, 28.43795805647536 55.73617179673509 C22.14360495214259 55.21304514187504, 14.575113666953673 51.92039983295597, 10.039268319800819 47.81355787954904 C5.503422972647965 43.7067159261421, 2.088537677014483 36.71729828522984, 1.2228859735582382 31.09512007629349 C0.3572342701019936 25.472941867357143, 1.674679084449029 19.068748567765546, 4.8453580990633505 14.080488625930956 C8.016037113677672 9.092228684096368, 14.221012857496273 2.996236061345254, 20.246960061244167 1.1655604252859604 C26.27290726499206 -0.6651152107733334, 37.437057857870684 2.9353512198659852, 41.0010413215507 3.096434809575193 C44.56502478523072 3.257518399284401, 42.01813910173676 1.759630774344253, 41.630860843324285 2.132061963541208" stroke="#343a40" stroke-width="1" fill="none"></path></g><g transform="translate(21.20001220703125 245.19996643066406) rotate(0 20 13)"><text x="0" y="22" font-family="Virgil, Segoe UI Emoji" font-size="20px" fill="#343a40" text-anchor="start" style="white-space: pre;" direction="ltr">User</text></g><g><g transform="translate(81.20001220703125 230.59996032714844) rotate(0 44.54406533686446 1.9450081468932297)"><path d="M0.6843093808740377 1.0981241706758735 C15.715474222662552 1.3966193867288532, 74.90071077973894 1.712134991865607, 89.50369759723546 1.8292196091637039 M-0.415566923506558 0.6290354149416091 C14.618150867472096 1.110940988231451, 74.50602855046593 2.8662457538582404, 89.16036954853686 3.2609808788448595" stroke="#343a40" stroke-width="1" fill="none"></path></g><g transform="translate(81.20001220703125 230.59996032714844) rotate(0 44.54406533686446 1.9450081468932297)"><path d="M62.52022088218268 14.637930291697137 C67.27153582921599 10.174469522186742, 74.1438670673443 7.944905921093361, 88.16923206444832 4.063486440926793 M60.99702717914965 12.554691184304408 C71.32012131278762 9.811271798276927, 82.38005417029484 5.543898541837646, 90.11718169651928 3.540176138170066" stroke="#343a40" stroke-width="1" fill="none"></path></g><g transform="translate(81.20001220703125 230.59996032714844) rotate(0 44.54406533686446 1.9450081468932297)"><path d="M63.102040354525066 -5.875028746126803 C67.718477033222 -5.349311399636763, 74.449391785725 -2.5930147557538676, 88.16923206444832 4.063486440926793 M61.578846651492036 -7.958267853519532 C71.73310358502206 -2.7581066225330986, 82.56769813159768 0.9191760865335796, 90.11718169651928 3.540176138170066" stroke="#343a40" stroke-width="1" fill="none"></path></g></g><g transform="translate(81.2000732421875 197.19996643066406) rotate(0 40 13)"><text x="0" y="22" font-family="Virgil, Segoe UI Emoji" font-size="20px" fill="#343a40" text-anchor="start" style="white-space: pre;" direction="ltr">Requests</text></g><g transform="translate(170.20004272460938 190.2000274658203) rotate(0 57.200042724609375 50.79997253417969)"><path d="M-0.9362245108932257 -0.49336532689630985 C26.54022792324327 2.2557086740071224, 51.481228468341676 -0.8056666459506105, 114.67739916779098 -1.7894907984882593 M-0.6517469780519605 -0.47837754618376493 C31.63838212876893 1.4727799707270928, 63.106866452569804 1.1615558379508324, 113.60501072835174 0.9481490300968289 M113.43068505264816 -1.9265428576618433 C113.76518402835983 33.242767068456466, 114.55330590746063 64.18858723322224, 115.7517767641693 101.09140904806553 M114.97525880765167 0.1931849168613553 C114.00775887827317 33.74453225362846, 114.40570586184899 65.8488018392359, 114.53497500251976 100.85357246268539 M113.44364602304992 101.31240447424351 C81.9474772517485 102.53071264878447, 48.41890834922148 102.62330232516463, 0.5762707088142633 102.76333024166523 M114.37794799637047 101.00295863021164 C70.84788873748197 101.05512160367186, 25.489776004167197 101.73463347858603, 0.6470863027498126 101.10286510456352 M-1.190249314531684 103.07528330944477 C1.0411593002363522 78.13341811133688, 1.806480733780511 52.04118326906394, 0.08978481031954288 -1.9974210653454065 M0.19642678927630186 101.31749022472648 C0.43113237165920704 78.0938909757204, 1.7878977909039733 55.7196617294609, 0.27517641615122557 -0.9592159641906619" stroke="#343a40" stroke-width="1" fill="none"></path></g><g transform="translate(192.80010986328125 213.69998168945312) rotate(0 33 26.5)"><text x="33" y="21.5" font-family="Virgil, Segoe UI Emoji" font-size="20px" fill="#343a40" text-anchor="middle" style="white-space: pre;" direction="ltr">Sever.js</text><text x="33" y="48" font-family="Virgil, Segoe UI Emoji" font-size="20px" fill="#343a40" text-anchor="middle" style="white-space: pre;" direction="ltr">routes</text></g><g><g transform="translate(286.6000061035156 239.4999542236328) rotate(0 42.94500217817722 1.3453289267380342)"><path d="M1.193337756022811 -1.1931790228933095 C14.86279746647924 -0.6437706914743803, 69.33094181548803 2.1909998684123044, 83.20827086493372 2.8012705502951007 M0.3607013485953212 0.7947980447486045 C14.31272868528962 1.516092504354713, 71.59668023496866 3.490246617507923, 85.52930300775915 3.883836876369403" stroke="#343a40" stroke-width="1" fill="none"></path></g><g transform="translate(286.6000061035156 239.4999542236328) rotate(0 42.94500217817722 1.3453289267380342)"><path d="M55.034625463590686 11.991896279869078 C67.00009601719252 10.057133051773853, 77.82764337053814 5.959385032244786, 85.77821625676006 3.17527939914851 M57.03242436743594 13.742783793961106 C66.96466526299159 9.63690896103692, 78.53846837781985 6.997846203363574, 85.31069513969123 3.4634373697930436" stroke="#343a40" stroke-width="1" fill="none"></path></g><g transform="translate(286.6000061035156 239.4999542236328) rotate(0 42.94500217817722 1.3453289267380342)"><path d="M55.69429865837773 -8.518706677185087 C67.31172960271856 -2.257175418585012, 77.8758742538848 1.8348109408314208, 85.77821625676006 3.17527939914851 M57.69209756222298 -6.767819163093058 C67.38469410186923 -3.46671148796828, 78.72028866301963 1.3006219882358945, 85.31069513969123 3.4634373697930436" stroke="#343a40" stroke-width="1" fill="none"></path></g></g><g transform="translate(286.6000671386719 209.2999725341797) rotate(0 40 13)"><text x="0" y="22" font-family="Virgil, Segoe UI Emoji" font-size="20px" fill="#343a40" text-anchor="start" style="white-space: pre;" direction="ltr">Requests</text></g></svg>